<svg width="23.000000" height="22.000000" viewBox="0 0 23 22" fill="none" xmlns="http://www.w3.org/2000/svg" xmlns:xlink="http://www.w3.org/1999/xlink">
	<desc>
			Created with Pixso.
	</desc>
	<defs/>
	<g opacity="0.500000">
		<path id="Vector" d="M20.42 15.13L16.05 13.25C15.86 13.17 15.65 13.16 15.46 13.21C15.26 13.25 15.08 13.37 14.96 13.52L13.02 15.89C9.98 14.46 7.53 12.01 6.1 8.97L8.46 7.03C8.62 6.9 8.73 6.73 8.78 6.53C8.83 6.33 8.81 6.12 8.73 5.94L6.86 1.56C6.77 1.36 6.62 1.2 6.42 1.1C6.22 1 6 0.97 5.78 1.02L1.72 1.96C1.51 2 1.33 2.12 1.2 2.29C1.07 2.45 0.99 2.66 1 2.87C1 12.89 9.12 21 19.12 21C19.33 21 19.54 20.92 19.7 20.79C19.87 20.66 19.99 20.48 20.03 20.27L20.97 16.21C21.02 15.99 20.99 15.77 20.89 15.57C20.79 15.37 20.63 15.22 20.42 15.13Z" fill="#00A0E3" fill-opacity="1.000000" fill-rule="nonzero"/>
		<path id="Vector" d="M20.82 14.21L16.44 12.33L16.44 12.33Q16.3 12.27 16.15 12.23Q16 12.2 15.84 12.18Q15.68 12.17 15.53 12.18Q15.37 12.2 15.22 12.23Q15.07 12.27 14.92 12.33Q14.78 12.39 14.65 12.48Q14.51 12.56 14.4 12.66Q14.28 12.77 14.18 12.89L12.75 14.63Q12.07 14.26 11.44 13.82Q10.49 13.15 9.66 12.32Q8.83 11.49 8.17 10.55Q7.72 9.92 7.35 9.23L9.1 7.8Q9.2 7.72 9.28 7.63Q9.41 7.5 9.51 7.34Q9.59 7.21 9.65 7.06Q9.72 6.92 9.75 6.77Q9.79 6.62 9.8 6.46Q9.82 6.3 9.8 6.15Q9.79 5.99 9.75 5.84Q9.71 5.69 9.65 5.54L7.78 1.17Q7.69 0.96 7.55 0.78Q7.49 0.69 7.41 0.6Q7.29 0.48 7.16 0.38Q7.02 0.28 6.87 0.2Q6.72 0.13 6.56 0.08Q6.4 0.03 6.23 0.01Q6.06 -0.01 5.89 0Q5.73 0.01 5.56 0.04L1.5 0.98Q1.34 1.02 1.18 1.08Q1.04 1.14 0.9 1.23Q0.76 1.32 0.64 1.43Q0.52 1.54 0.42 1.66Q0.31 1.79 0.24 1.93Q0.16 2.08 0.1 2.23Q0.05 2.39 0.02 2.55Q-3.06e-5 2.71 0 2.87Q0 4.26 0.19 5.63Q0.27 6.18 0.38 6.73Q0.58 7.67 0.86 8.58Q1.14 9.46 1.5 10.32Q1.81 11.05 2.18 11.76Q2.67 12.69 3.26 13.57Q3.74 14.27 4.27 14.93Q4.9 15.69 5.6 16.4Q6.3 17.09 7.06 17.71Q7.72 18.25 8.43 18.73Q9.31 19.32 10.24 19.81Q10.94 20.18 11.68 20.49Q12.54 20.86 13.43 21.14Q14.34 21.42 15.27 21.61Q15.83 21.72 16.39 21.8Q17.74 22 19.12 22Q19.28 22 19.43 21.97Q19.6 21.94 19.76 21.89Q19.91 21.83 20.06 21.75Q20.2 21.68 20.33 21.57Q20.46 21.47 20.56 21.35Q20.67 21.23 20.76 21.09Q20.85 20.95 20.91 20.8Q20.97 20.65 21.01 20.49L21.95 16.43Q21.99 16.21 22 16Q22 15.88 21.98 15.76Q21.96 15.59 21.91 15.43Q21.86 15.27 21.78 15.12Q21.71 14.96 21.61 14.83Q21.51 14.7 21.38 14.58Q21.26 14.46 21.12 14.37Q20.98 14.28 20.82 14.21ZM6.1 8.97L8.46 7.03C8.62 6.9 8.73 6.73 8.78 6.53C8.83 6.33 8.81 6.12 8.73 5.94L6.86 1.56C6.77 1.36 6.62 1.2 6.42 1.1C6.22 1 6 0.97 5.78 1.02L1.72 1.96C1.51 2 1.33 2.12 1.2 2.29C1.07 2.45 0.99 2.66 1 2.87C1 12.89 9.12 21 19.12 21C19.33 21 19.54 20.92 19.7 20.79C19.87 20.66 19.99 20.48 20.03 20.27L20.97 16.21C21.02 15.99 20.99 15.77 20.89 15.57C20.79 15.37 20.63 15.22 20.42 15.13L16.05 13.25C15.86 13.17 15.65 13.16 15.46 13.21C15.26 13.25 15.08 13.37 14.96 13.52L13.02 15.89C9.98 14.46 7.53 12.01 6.1 8.97Z" fill="#00A0E3" fill-opacity="1.000000" fill-rule="evenodd"/>
	</g>
</svg>
