<svg width="25.000000" height="20.000000" viewBox="0 0 25 20" fill="none" xmlns="http://www.w3.org/2000/svg" xmlns:xlink="http://www.w3.org/1999/xlink">
	<desc>
			Created with Pixso.
	</desc>
	<defs/>
	<g opacity="0.500000">
		<path id="" d="M16.99 12.5C16.89 12.6 16.71 12.76 16.46 12.97C16.21 13.18 15.96 13.36 15.78 13.52C15.6 13.67 15.33 13.86 15.05 14.06C14.78 14.25 14.5 14.42 14.21 14.56C13.94 14.68 13.66 14.79 13.38 14.87C13.09 14.96 12.79 15 12.5 15C12.16 15 11.82 14.95 11.5 14.84C11.13 14.72 10.78 14.56 10.45 14.35C10.1 14.12 9.8 13.93 9.56 13.78C9.33 13.62 9.05 13.39 8.66 13.07C8.28 12.75 8.08 12.56 8.01 12.49C4.06 9.44 1.56 7.47 0.5 6.61C0.45 6.57 0.4 6.55 0.34 6.55C0.29 6.54 0.23 6.55 0.18 6.58C0.12 6.6 0.08 6.64 0.04 6.69C0.01 6.74 -0.01 6.8 0 6.87L0 17.5C-0.01 17.82 0.05 18.15 0.17 18.45C0.29 18.76 0.46 19.04 0.68 19.27C0.9 19.5 1.16 19.68 1.45 19.81C1.73 19.93 2.04 20 2.35 20L22.66 20C22.97 20 23.27 19.93 23.56 19.8C23.84 19.68 24.1 19.49 24.31 19.26C24.53 19.03 24.7 18.75 24.82 18.45C24.94 18.15 25 17.82 24.99 17.5L24.99 6.88C25 6.82 24.98 6.75 24.95 6.7C24.93 6.64 24.88 6.6 24.83 6.57C24.78 6.53 24.72 6.52 24.66 6.53C24.6 6.54 24.55 6.57 24.51 6.62C23.34 7.59 20.83 9.56 16.99 12.51L16.99 12.5ZM13.45 13.05C13.76 12.89 14.07 12.72 14.36 12.53C14.58 12.37 14.92 12.11 15.36 11.75C15.58 11.54 15.81 11.36 16.06 11.2C20.13 8.04 22.96 5.8 24.56 4.48C24.7 4.36 24.81 4.21 24.89 4.04C24.96 3.86 25 3.68 24.99 3.49L24.99 2.5C25 2.17 24.94 1.84 24.82 1.54C24.7 1.24 24.53 0.96 24.31 0.73C24.1 0.5 23.84 0.31 23.56 0.19C23.27 0.06 22.97 0 22.66 0L2.35 0C2.04 -0.01 1.73 0.06 1.45 0.18C1.16 0.31 0.9 0.49 0.68 0.72C0.46 0.95 0.29 1.23 0.17 1.54C0.05 1.84 -0.01 2.17 0 2.5L0 3.49C-0.01 3.68 0.03 3.87 0.11 4.04C0.18 4.21 0.3 4.36 0.45 4.48C2.13 5.87 4.96 8.11 8.93 11.2C9.18 11.36 9.42 11.54 9.65 11.75C10.08 12.11 10.41 12.37 10.65 12.53C10.94 12.72 11.24 12.89 11.55 13.05C11.84 13.21 12.16 13.31 12.5 13.33C12.83 13.31 13.15 13.22 13.45 13.05Z" fill="#00A0E3" fill-opacity="1.000000" fill-rule="evenodd"/>
		<path id="" d="M15.99 13.34C15.92 13.4 15.84 13.46 15.78 13.52C15.6 13.67 15.33 13.86 15.05 14.06C14.78 14.25 14.5 14.42 14.21 14.56C13.94 14.68 13.66 14.79 13.38 14.87C13.09 14.96 12.79 15 12.5 15C12.16 15 11.82 14.95 11.5 14.84C11.13 14.72 10.78 14.56 10.45 14.35C10.1 14.12 9.8 13.93 9.56 13.78C9.33 13.62 9.05 13.39 8.66 13.07C8.28 12.75 8.08 12.56 8.01 12.49C4.59 9.84 2.25 8.02 1 7.01C0.99 7.01 0.99 7 0.98 7C0.8 6.85 0.63 6.72 0.5 6.61C0.45 6.57 0.4 6.55 0.34 6.55C0.29 6.54 0.23 6.55 0.18 6.58C0.12 6.6 0.08 6.64 0.04 6.69C0.01 6.74 -0.01 6.8 0 6.87L0 17.5C-0.01 17.82 0.05 18.15 0.17 18.45C0.29 18.76 0.46 19.04 0.68 19.27C0.9 19.5 1.16 19.68 1.45 19.81C1.73 19.93 2.04 20 2.35 20L22.66 20C22.97 20 23.27 19.93 23.56 19.8C23.84 19.68 24.1 19.49 24.31 19.26C24.53 19.03 24.7 18.75 24.82 18.45C24.94 18.15 25 17.82 24.99 17.5L24.99 6.88C25 6.82 24.98 6.75 24.95 6.7C24.93 6.64 24.88 6.6 24.83 6.57C24.78 6.53 24.72 6.52 24.66 6.53C24.6 6.54 24.55 6.57 24.51 6.62C24.37 6.74 24.2 6.88 24.02 7.03C24.01 7.03 24 7.04 23.99 7.04C22.81 8 20.81 9.57 17.99 11.74C17.67 11.99 17.34 12.24 17 12.5C17 12.5 17 12.51 16.99 12.51L16.99 12.5C16.99 12.5 16.99 12.5 16.99 12.5C16.89 12.61 16.71 12.76 16.46 12.97C16.3 13.1 16.14 13.23 15.99 13.34ZM13.45 13.05C13.76 12.89 14.07 12.72 14.36 12.53C14.58 12.37 14.92 12.11 15.36 11.75C15.58 11.54 15.81 11.36 16.06 11.2C20.13 8.04 22.96 5.8 24.56 4.48C24.7 4.36 24.81 4.21 24.89 4.04C24.96 3.86 25 3.68 24.99 3.49L24.99 2.5C25 2.17 24.94 1.84 24.82 1.54C24.7 1.24 24.53 0.96 24.31 0.73C24.1 0.5 23.84 0.31 23.56 0.19C23.27 0.06 22.97 0 22.66 0L2.35 0C2.04 -0.01 1.73 0.06 1.45 0.18C1.16 0.31 0.9 0.49 0.68 0.72C0.46 0.95 0.29 1.23 0.17 1.54C0.05 1.84 -0.01 2.17 0 2.5L0 3.49C-0.01 3.68 0.03 3.87 0.11 4.04C0.18 4.21 0.3 4.36 0.45 4.48C2.13 5.87 4.96 8.11 8.93 11.2C9.18 11.36 9.42 11.54 9.65 11.75C10.08 12.11 10.41 12.37 10.65 12.53C10.94 12.72 11.24 12.89 11.55 13.05C11.84 13.21 12.16 13.31 12.5 13.33C12.83 13.31 13.15 13.22 13.45 13.05ZM12.5 12.33Q12.57 12.32 12.63 12.31Q12.79 12.27 12.94 12.18L12.97 12.16L13.01 12.15Q13.05 12.13 13.09 12.11Q13.46 11.92 13.8 11.7Q14.1 11.49 14.7 10.99Q15.03 10.69 15.38 10.45Q15.43 10.41 15.48 10.38Q21.55 5.67 23.93 3.7Q23.95 3.68 23.97 3.64Q23.98 3.63 23.98 3.62Q24 3.57 23.99 3.52L23.99 3.5L23.99 2.5Q24 2.27 23.94 2.06Q23.92 1.98 23.89 1.9Q23.81 1.69 23.68 1.52Q23.63 1.46 23.58 1.41Q23.44 1.26 23.27 1.16Q23.21 1.13 23.15 1.1Q23.01 1.04 22.86 1.01Q22.76 1 22.66 1L2.35 1Q2.2 0.99 2.06 1.03Q1.95 1.05 1.85 1.1Q1.78 1.12 1.73 1.16Q1.55 1.25 1.41 1.41Q1.36 1.46 1.32 1.51Q1.19 1.69 1.1 1.9Q1.06 2.01 1.03 2.13Q0.99 2.31 1 2.49L1 3.5L1 3.52Q0.99 3.56 1.01 3.6Q1.01 3.62 1.02 3.63Q1.03 3.67 1.06 3.69L1.07 3.7L1.08 3.7Q3.59 5.77 9.51 10.38Q9.53 10.4 9.56 10.41Q9.95 10.68 10.3 10.99Q10.9 11.49 11.2 11.69Q11.58 11.94 12 12.16L12.02 12.16L12.04 12.17Q12.19 12.26 12.37 12.31Q12.43 12.32 12.5 12.33ZM17.6 13.3Q17.43 13.46 17.1 13.73Q16.96 13.85 16.7 14.06Q16.5 14.21 16.43 14.28Q16.26 14.42 15.86 14.71Q15.71 14.81 15.64 14.87Q15.16 15.21 14.65 15.46L14.64 15.46L14.63 15.46Q14.29 15.63 13.92 15.75Q13.79 15.79 13.66 15.83Q13.43 15.9 13.2 15.94Q12.85 16 12.5 16Q12.06 16 11.64 15.91Q11.42 15.87 11.2 15.8Q10.72 15.64 10.28 15.41Q10.09 15.31 9.91 15.2Q9.81 15.13 9.63 15.02Q9.18 14.73 9.01 14.61Q8.72 14.41 8.02 13.83Q7.55 13.44 7.35 13.25Q3 9.88 1 8.29L1 17.5Q0.99 17.71 1.05 17.91Q1.07 18 1.1 18.09Q1.19 18.3 1.32 18.48Q1.36 18.53 1.41 18.58Q1.55 18.74 1.73 18.83Q1.78 18.87 1.85 18.89Q1.99 18.96 2.14 18.98Q2.24 19 2.34 19L22.66 19Q22.76 19 22.86 18.98Q23.01 18.95 23.15 18.89Q23.21 18.86 23.27 18.83Q23.44 18.73 23.58 18.58Q23.63 18.53 23.68 18.47Q23.81 18.3 23.89 18.09Q23.93 17.99 23.95 17.88Q24 17.69 23.99 17.5L23.99 8.33Q21.98 9.93 17.61 13.3L17.6 13.3Z" fill="#00A0E3" fill-opacity="1.000000" fill-rule="evenodd"/>
	</g>
</svg>
