<svg width="18.000000" height="20.000000" viewBox="0 0 18 20" fill="none" xmlns="http://www.w3.org/2000/svg" xmlns:xlink="http://www.w3.org/1999/xlink">
	<desc>
			Created with Pixso.
	</desc>
	<defs/>
	<g opacity="0.500000">
		<path id="Vector" d="M8.57 0C10.84 0 13.02 0.9 14.63 2.51C16.23 4.11 17.14 6.29 17.14 8.57C17.14 12.12 14.43 15.83 9.14 19.8C8.97 19.93 8.77 20 8.57 20C8.36 20 8.16 19.93 8 19.8C2.7 15.83 0 12.12 0 8.57C0 6.29 0.9 4.11 2.51 2.51C4.11 0.9 6.29 0 8.57 0ZM8.57 5.71C7.81 5.71 7.08 6.01 6.55 6.55C6.01 7.08 5.71 7.81 5.71 8.57C5.71 9.32 6.01 10.05 6.55 10.59C7.08 11.12 7.81 11.42 8.57 11.42C9.32 11.42 10.05 11.12 10.59 10.59C11.12 10.05 11.42 9.32 11.42 8.57C11.42 7.81 11.12 7.08 10.59 6.55C10.05 6.01 9.32 5.71 8.57 5.71Z" fill="#00A0E3" fill-opacity="1.000000" fill-rule="nonzero"/>
		<path id="Vector" d="M8.57 0C10.84 0 13.02 0.9 14.63 2.51C16.23 4.11 17.14 6.29 17.14 8.57C17.14 12.12 14.43 15.83 9.14 19.8C8.97 19.93 8.77 20 8.57 20C8.36 20 8.16 19.93 8 19.8C2.7 15.83 0 12.12 0 8.57C0 6.29 0.9 4.11 2.51 2.51C4.11 0.9 6.29 0 8.57 0ZM12.77 2.27Q13.39 2.68 13.92 3.21Q14.45 3.75 14.86 4.36Q15.27 4.97 15.56 5.67Q15.85 6.37 15.99 7.09Q16.14 7.81 16.14 8.57Q16.14 13.3 8.57 18.98Q1 13.3 1 8.57Q1 7.81 1.14 7.09Q1.28 6.37 1.57 5.67Q1.86 4.97 2.27 4.36Q2.68 3.75 3.21 3.21Q3.75 2.68 4.36 2.27Q4.97 1.86 5.67 1.57Q6.36 1.28 7.09 1.14Q7.81 1 8.57 1Q9.32 1 10.04 1.14Q10.77 1.28 11.46 1.57Q12.16 1.86 12.77 2.27ZM6.42 5.36Q6.11 5.57 5.84 5.84Q5.57 6.11 5.36 6.42Q5.15 6.74 5 7.09Q4.86 7.45 4.78 7.81Q4.71 8.18 4.71 8.57Q4.71 8.95 4.78 9.32Q4.86 9.69 5 10.04Q5.15 10.4 5.36 10.71Q5.57 11.02 5.84 11.29Q6.11 11.57 6.42 11.77Q6.74 11.98 7.09 12.13Q7.44 12.28 7.81 12.35Q8.18 12.42 8.57 12.42Q8.95 12.42 9.32 12.35Q9.69 12.28 10.04 12.13Q10.4 11.98 10.71 11.77Q11.02 11.57 11.29 11.29Q11.57 11.02 11.77 10.71Q11.98 10.4 12.13 10.04Q12.28 9.69 12.35 9.32Q12.42 8.95 12.42 8.57Q12.42 8.18 12.35 7.81Q12.28 7.45 12.13 7.09Q11.98 6.74 11.77 6.42Q11.57 6.11 11.29 5.84Q11.02 5.57 10.71 5.36Q10.4 5.15 10.04 5Q9.69 4.86 9.32 4.78Q8.95 4.71 8.57 4.71Q8.18 4.71 7.81 4.78Q7.44 4.86 7.09 5Q6.74 5.15 6.42 5.36ZM8.57 5.71C7.81 5.71 7.08 6.01 6.55 6.55C6.01 7.08 5.71 7.81 5.71 8.57C5.71 9.32 6.01 10.05 6.55 10.59C7.08 11.12 7.81 11.42 8.57 11.42C9.32 11.42 10.05 11.12 10.59 10.59C11.12 10.05 11.42 9.32 11.42 8.57C11.42 7.81 11.12 7.08 10.59 6.55C10.05 6.01 9.32 5.71 8.57 5.71Z" fill="#00A0E3" fill-opacity="1.000000" fill-rule="evenodd"/>
	</g>
</svg>
